# xmcd CD database file
#
# Track frame offsets:
#	150
#	2713
#	23667
#	55850
#	99373
#	122946
#	145349
#	163572
#	185305
#	210550
#
# Disc length: 3097 seconds
#
# Revision: 0
# Processed by: cddbd v1.5.1PL0 Copyright (c) Steve Scherf et al.
# Submitted via: CDex 1.51
#
DISCID=7d0c170a
DTITLE=Yngwie J. Malmsteen's Rising Force - Jorn Lande On Vocal [CD1]
DYEAR=2000
DGENRE=Heavy Metal
TTITLE0=Opening
TTITLE1=Rising Force
TTITLE2=Crucify
TTITLE3=Guitar Solo-Paganini-Adagio-Farbeyond The Sun
TTITLE4=Masquerade
TTITLE5=Trilogy Suite Opus 5-Guitar Solo
TTITLE6=Red House
TTITLE7=BWV 1067: Badinerie-Guitar Solo-Band Intro
TTITLE8=I'll See The Light, Tonight
TTITLE9=Evil Eye
EXTD=YEAR: 2000
EXTT0=
EXTT1=
EXTT2=
EXTT3=
EXTT4=
EXTT5=
EXTT6=
EXTT7=
EXTT8=
EXTT9=
PLAYORDER=
